<svg width="24" height="22" viewBox="0 0 24 22" fill="none" xmlns="http://www.w3.org/2000/svg">
<g opacity="0.3" clip-path="url(#clip0_387_2406)">
<path d="M10.46 16.5465C10.146 16.5448 9.83587 16.4854 9.55 16.372C9.24083 16.2532 8.97741 16.0592 8.79122 15.8134C8.60503 15.5675 8.50393 15.2801 8.5 14.9854V7.64239C8.50393 7.34775 8.60503 7.06032 8.79122 6.81444C8.97741 6.56856 9.24083 6.37461 9.55 6.25576C9.90574 6.10922 10.3015 6.05278 10.6923 6.09287C11.083 6.13296 11.453 6.26796 11.76 6.4825L16.86 10.154C17.06 10.2929 17.2215 10.4693 17.3325 10.6701C17.4435 10.8709 17.5012 11.091 17.5012 11.3139C17.5012 11.5368 17.4435 11.7569 17.3325 11.9577C17.2215 12.1585 17.06 12.3349 16.86 12.4738L11.76 16.1453C11.3924 16.4053 10.9333 16.547 10.46 16.5465Z" fill="white"/>
</g>
<defs>
<clipPath id="clip0_387_2406">
<rect width="24" height="20.9302" fill="white" transform="translate(0 0.848877)"/>
</clipPath>
</defs>
</svg>
