<svg width="24" height="24" viewBox="0 0 24 24" fill="none" xmlns="http://www.w3.org/2000/svg">
<g opacity="0.2" clip-path="url(#clip0_374_618)">
<path d="M10.1701 5.00021C10.3195 4.9997 10.4671 5.03268 10.6021 5.09671C10.737 5.16073 10.856 5.25419 10.9501 5.37021L15.7801 11.3702C15.9272 11.5491 16.0076 11.7736 16.0076 12.0052C16.0076 12.2368 15.9272 12.4613 15.7801 12.6402L10.7801 18.6402C10.6103 18.8444 10.3664 18.9729 10.102 18.9972C9.83758 19.0216 9.5743 18.94 9.37008 18.7702C9.16586 18.6005 9.03744 18.3566 9.01306 18.0921C8.98868 17.8277 9.07034 17.5644 9.24008 17.3602L13.7101 12.0002L9.39008 6.64021C9.2678 6.49343 9.19012 6.31469 9.16624 6.12514C9.14236 5.93559 9.17328 5.74317 9.25533 5.57064C9.33739 5.39811 9.46715 5.2527 9.62926 5.15161C9.79137 5.05052 9.97905 4.99798 10.1701 5.00021Z" fill="black"/>
</g>
<defs>
<clipPath id="clip0_374_618">
<rect width="24" height="24" fill="white" transform="translate(24 24) rotate(180)"/>
</clipPath>
</defs>
</svg>
