<svg width="16" height="16" viewBox="0 0 16 16" fill="none" xmlns="http://www.w3.org/2000/svg">
<g opacity="0.5">
<path d="M10 2.66667L10 11.3333L9.2 10.2667C9.14747 10.1966 9.08166 10.1376 9.00633 10.093C8.93099 10.0484 8.84761 10.0191 8.76094 10.0067C8.67428 9.99432 8.58602 9.99913 8.50121 10.0209C8.4164 10.0426 8.3367 10.0808 8.26666 10.1333C8.18387 10.1954 8.11666 10.276 8.07038 10.3685C8.02409 10.4611 8 10.5632 8 10.6667C8 10.8109 8.04678 10.9513 8.13333 11.0667L10.1333 13.7333C10.1955 13.8149 10.2757 13.881 10.3677 13.9264C10.4596 13.9719 10.5608 13.9956 10.6633 13.9956C10.7659 13.9956 10.8671 13.9719 10.959 13.9264C11.0509 13.881 11.1311 13.8149 11.1933 13.7333L13.1933 11.16C13.3021 11.0203 13.3509 10.8432 13.329 10.6675C13.3071 10.4918 13.2163 10.3321 13.0767 10.2233C12.937 10.1146 12.7598 10.0658 12.5842 10.0877C12.4085 10.1096 12.2487 10.2003 12.14 10.34L11.3333 11.3867L11.3333 2.66667C11.3333 2.48986 11.2631 2.32029 11.1381 2.19526C11.013 2.07024 10.8435 2 10.6667 2C10.4899 2 10.3203 2.07024 10.1953 2.19526C10.0702 2.32029 10 2.48986 10 2.66667Z" fill="black"/>
<path d="M5.33337 13.3333L5.33337 4.66665L6.13337 5.73332C6.23946 5.87477 6.39739 5.96828 6.57242 5.99329C6.74746 6.01829 6.92526 5.97274 7.0667 5.86666C7.20815 5.76057 7.30167 5.60264 7.32667 5.4276C7.35168 5.25257 7.30612 5.07477 7.20004 4.93332L5.20004 2.26665C5.13782 2.18512 5.05763 2.11903 4.96571 2.07355C4.87378 2.02806 4.7726 2.00439 4.67004 2.00439C4.56747 2.00439 4.46629 2.02806 4.37437 2.07355C4.28244 2.11903 4.20225 2.18512 4.14004 2.26665L2.14004 4.83999C2.04973 4.95635 2.0005 5.09935 2.00004 5.24665C2.00028 5.34847 2.02384 5.44887 2.06891 5.54016C2.11398 5.63146 2.17936 5.71122 2.26004 5.77332C2.39902 5.88158 2.5752 5.93043 2.75009 5.9092C2.92497 5.88796 3.08434 5.79836 3.19337 5.65999L4.00004 4.61332L4.00004 13.3333C4.00004 13.5101 4.07028 13.6797 4.1953 13.8047C4.32032 13.9298 4.48989 14 4.6667 14C4.84352 14 5.01309 13.9298 5.13811 13.8047C5.26313 13.6797 5.33337 13.5101 5.33337 13.3333Z" fill="black"/>
</g>
</svg>
