<svg width="24" height="24" viewBox="0 0 24 24" fill="none" xmlns="http://www.w3.org/2000/svg">
<g clip-path="url(#clip0_4_14)">
<g clip-path="url(#clip1_4_14)">
<path d="M8.09008 21.06C7.82486 21.06 7.57051 20.9546 7.38297 20.7671C7.19544 20.5796 7.09008 20.3252 7.09008 20.06L6.94008 5.4C6.92804 5.10234 6.97496 4.80525 7.07815 4.52579C7.18135 4.24633 7.33877 3.99004 7.54137 3.77164C7.74396 3.55324 7.98774 3.37705 8.25868 3.25321C8.52961 3.12936 8.82236 3.0603 9.12008 3.05L18.7101 3C19.0082 3.00521 19.3024 3.06909 19.5758 3.18801C19.8492 3.30692 20.0965 3.47854 20.3036 3.69305C20.5107 3.90756 20.6735 4.16077 20.7827 4.43821C20.8919 4.71565 20.9454 5.01189 20.9401 5.31L21.0801 19.97C21.0818 20.1452 21.0374 20.3178 20.9514 20.4705C20.8654 20.6232 20.7408 20.7506 20.5901 20.84C20.4381 20.9278 20.2656 20.974 20.0901 20.974C19.9145 20.974 19.7421 20.9278 19.5901 20.84L13.8901 17.68L8.60008 20.91C8.44343 20.9975 8.26916 21.0488 8.09008 21.06ZM13.8501 15.51C14.0238 15.5103 14.1951 15.5514 14.3501 15.63L19.0601 18.24L18.9401 5.29C18.9401 5.09 18.8101 4.95 18.7301 4.96L9.13008 5.05C9.05008 5.05 8.94008 5.18 8.94008 5.38L9.06008 18.28L13.3401 15.65C13.4955 15.561 13.671 15.5128 13.8501 15.51Z" fill="black"/>
</g>
<circle cx="19.5" cy="4.5" r="3.5" fill="#3D6AF2"/>
</g>
<defs>
<clipPath id="clip0_4_14">
<rect width="24" height="24" fill="white"/>
</clipPath>
<clipPath id="clip1_4_14">
<rect width="24" height="24" fill="white" transform="translate(2)"/>
</clipPath>
</defs>
</svg>
