<svg width="31" height="31" viewBox="0 0 31 31" fill="none" xmlns="http://www.w3.org/2000/svg">
<path d="M24.2707 13.6041L16.2395 5.3958C16.1426 5.29817 16.0274 5.22067 15.9005 5.16779C15.7735 5.1149 15.6374 5.08768 15.4999 5.08768C15.3624 5.08768 15.2262 5.1149 15.0993 5.16779C14.9723 5.22067 14.8571 5.29817 14.7603 5.3958L6.72904 13.6145C6.53471 13.8105 6.38122 14.043 6.27751 14.2987C6.17379 14.5544 6.12191 14.8282 6.12488 15.1041V23.8333C6.12407 24.3665 6.32776 24.8798 6.69402 25.2674C7.06027 25.6549 7.56119 25.8873 8.09363 25.9166H22.9061C23.4386 25.8873 23.9395 25.6549 24.3057 25.2674C24.672 24.8798 24.8757 24.3665 24.8749 23.8333V15.1041C24.8757 14.5447 24.6591 14.0068 24.2707 13.6041ZM13.4165 23.8333V17.5833H17.5832V23.8333H13.4165ZM22.7915 23.8333H19.6665V16.5416C19.6665 16.2654 19.5568 16.0004 19.3614 15.8051C19.1661 15.6097 18.9011 15.5 18.6249 15.5H12.3749C12.0986 15.5 11.8337 15.6097 11.6383 15.8051C11.443 16.0004 11.3332 16.2654 11.3332 16.5416V23.8333H8.20821V15.0625L15.4999 7.61455L22.7915 15.1041V23.8333Z" fill="black"/>
</svg>
