<svg width="31" height="31" viewBox="0 0 31 31" fill="none" xmlns="http://www.w3.org/2000/svg">
<path d="M24.2708 13.6041L16.2396 5.3958C16.1427 5.29817 16.0275 5.22067 15.9006 5.16779C15.7737 5.1149 15.6375 5.08768 15.5 5.08768C15.3625 5.08768 15.2263 5.1149 15.0994 5.16779C14.9725 5.22067 14.8573 5.29817 14.7604 5.3958L6.72916 13.6145C6.53483 13.8105 6.38135 14.043 6.27763 14.2987C6.17392 14.5544 6.12203 14.8282 6.125 15.1041V23.8333C6.12419 24.3665 6.32789 24.8798 6.69414 25.2674C7.06039 25.6549 7.56131 25.8873 8.09375 25.9166H22.9062C23.4387 25.8873 23.9396 25.6549 24.3059 25.2674C24.6721 24.8798 24.8758 24.3665 24.875 23.8333V15.1041C24.8758 14.5447 24.6592 14.0068 24.2708 13.6041ZM13.4167 23.8333V17.5833H17.5833V23.8333H13.4167ZM22.7917 23.8333H19.6667V16.5416C19.6667 16.2654 19.5569 16.0004 19.3616 15.8051C19.1662 15.6097 18.9013 15.5 18.625 15.5H12.375C12.0987 15.5 11.8338 15.6097 11.6384 15.8051C11.4431 16.0004 11.3333 16.2654 11.3333 16.5416V23.8333H8.20833V15.0625L15.5 7.61455L22.7917 15.1041V23.8333Z" fill="black"/>
</svg>
