<svg width="25" height="25" viewBox="0 0 25 25" fill="none" xmlns="http://www.w3.org/2000/svg">
<g clip-path="url(#clip0_749_536)">
<path d="M17.3126 6.46874C17.2047 6.38337 17.0811 6.32019 16.9487 6.28287C16.8163 6.24554 16.6779 6.2348 16.5413 6.25126C16.4048 6.26773 16.2728 6.31107 16.1531 6.37879C16.0334 6.44651 15.9283 6.53727 15.8438 6.64582L8.55216 16.0208L4.97924 11.6667C4.89543 11.5551 4.79007 11.4615 4.6694 11.3915C4.54873 11.3214 4.41521 11.2763 4.27678 11.2588C4.13835 11.2414 3.99781 11.2519 3.86353 11.2898C3.72924 11.3277 3.60393 11.3922 3.49504 11.4794C3.38616 11.5667 3.29591 11.6749 3.22965 11.7977C3.1634 11.9205 3.12249 12.0554 3.10936 12.1943C3.09623 12.3332 3.11114 12.4733 3.1532 12.6064C3.19527 12.7394 3.26363 12.8626 3.35424 12.9687L7.69799 18.3646C7.79603 18.4854 7.9199 18.5828 8.06051 18.6495C8.20111 18.7162 8.35487 18.7505 8.51049 18.75C8.67568 18.7574 8.84024 18.7253 8.99058 18.6565C9.14093 18.5877 9.27272 18.484 9.37507 18.3542L17.5313 7.93749C17.6145 7.8271 17.6748 7.70127 17.7089 7.56732C17.7429 7.43337 17.75 7.29399 17.7296 7.15729C17.7092 7.0206 17.6619 6.88932 17.5903 6.7711C17.5187 6.65289 17.4243 6.55011 17.3126 6.46874Z" fill="black"/>
<path d="M22.5208 6.46874C22.413 6.38337 22.2893 6.32019 22.1569 6.28287C22.0246 6.24554 21.8861 6.2348 21.7496 6.25126C21.613 6.26773 21.4811 6.31107 21.3614 6.37879C21.2417 6.44651 21.1365 6.53727 21.0521 6.64582L13.7604 16.0208L13.125 15.2396L11.8125 16.9271L12.9583 18.3542C13.0564 18.475 13.1802 18.5724 13.3208 18.6391C13.4615 18.7058 13.6152 18.7401 13.7708 18.7396C13.9273 18.7389 14.0816 18.7029 14.2222 18.6344C14.3629 18.5658 14.4863 18.4665 14.5833 18.3437L22.7396 7.92707C22.8211 7.81701 22.8801 7.69194 22.9133 7.55904C22.9464 7.42613 22.953 7.28799 22.9327 7.15254C22.9124 7.01708 22.8655 6.88696 22.7949 6.76962C22.7242 6.65229 22.6311 6.55004 22.5208 6.46874Z" fill="black"/>
<path d="M9.07281 13.6042L10.4166 11.9167L10.2082 11.6667C10.126 11.5527 10.0215 11.4566 9.90119 11.3841C9.78083 11.3116 9.64705 11.2642 9.50788 11.2447C9.36872 11.2252 9.22706 11.2341 9.09143 11.2708C8.95579 11.3076 8.82899 11.3713 8.71864 11.4583C8.61164 11.5443 8.52267 11.6506 8.45687 11.771C8.39106 11.8915 8.34971 12.0237 8.33519 12.1602C8.32067 12.2967 8.33327 12.4347 8.37226 12.5663C8.41125 12.6979 8.47587 12.8205 8.56239 12.9271L9.07281 13.6042Z" fill="black"/>
</g>
<defs>
<clipPath id="clip0_749_536">
<rect width="25" height="25" fill="white"/>
</clipPath>
</defs>
</svg>
