<svg width="26" height="26" viewBox="0 0 26 26" fill="none" xmlns="http://www.w3.org/2000/svg">
<g opacity="0.5" clip-path="url(#clip0_996_830)">
<path d="M13.0001 22.7499C13.1426 22.7507 13.284 22.7234 13.416 22.6695C13.5479 22.6156 13.668 22.5361 13.7692 22.4357L22.1867 14.0074C23.2426 12.9405 23.8348 11.5001 23.8348 9.99906C23.8348 8.49803 23.2426 7.05762 22.1867 5.99073C21.1226 4.92962 19.6812 4.33374 18.1784 4.33374C16.6756 4.33374 15.2342 4.92962 14.1701 5.99073L13.0001 7.16073L11.8301 5.99073C10.7659 4.92962 9.32449 4.33374 7.82172 4.33374C6.31896 4.33374 4.87751 4.92962 3.81339 5.99073C2.75753 7.05762 2.16527 8.49803 2.16527 9.99906C2.16527 11.5001 2.75753 12.9405 3.81339 14.0074L12.2309 22.4357C12.3321 22.5361 12.4522 22.6156 12.5842 22.6695C12.7161 22.7234 12.8575 22.7507 13.0001 22.7499ZM18.1784 6.4999C18.637 6.49782 19.0914 6.58676 19.5154 6.76156C19.9394 6.93636 20.3245 7.19355 20.6484 7.51823C21.3027 8.17594 21.6699 9.06593 21.6699 9.99365C21.6699 10.9214 21.3027 11.8113 20.6484 12.4691L13.0001 20.1282L5.35172 12.4691C4.69746 11.8113 4.33018 10.9214 4.33018 9.99365C4.33018 9.06593 4.69746 8.17594 5.35172 7.51823C6.01942 6.88741 6.90317 6.53597 7.82172 6.53597C8.74028 6.53597 9.62403 6.88741 10.2917 7.51823L12.2309 9.46823C12.3316 9.56977 12.4514 9.65036 12.5834 9.70536C12.7154 9.76036 12.857 9.78868 13.0001 9.78868C13.1431 9.78868 13.2847 9.76036 13.4167 9.70536C13.5487 9.65036 13.6685 9.56977 13.7692 9.46823L15.7084 7.51823C16.0323 7.19355 16.4174 6.93636 16.8413 6.76156C17.2653 6.58676 17.7198 6.49782 18.1784 6.4999V6.4999Z" fill="#3D6AF2"/>
</g>
<g clip-path="url(#clip1_996_830)">
<path d="M12.9999 22.7499C12.8574 22.7507 12.716 22.7234 12.584 22.6695C12.4521 22.6156 12.332 22.5361 12.2308 22.4357L3.81328 14.0074C2.75742 12.9405 2.16516 11.5001 2.16516 9.99906C2.16516 8.49803 2.75742 7.05762 3.81328 5.99073C4.87739 4.92962 6.31884 4.33374 7.82161 4.33374C9.32438 4.33374 10.7658 4.92962 11.8299 5.99073L12.9999 7.16073L14.1699 5.99073C15.2341 4.92962 16.6755 4.33374 18.1783 4.33374C19.681 4.33374 21.1225 4.92962 22.1866 5.99073C23.2425 7.05762 23.8347 8.49803 23.8347 9.99906C23.8347 11.5001 23.2425 12.9405 22.1866 14.0074L13.7691 22.4357C13.6679 22.5361 13.5478 22.6156 13.4158 22.6695C13.2839 22.7234 13.1425 22.7507 12.9999 22.7499Z" fill="#3D6AF2"/>
</g>
<defs>
<clipPath id="clip0_996_830">
<rect width="26" height="26" fill="white" transform="matrix(-1 0 0 1 26 0)"/>
</clipPath>
<clipPath id="clip1_996_830">
<rect width="26" height="26" fill="white"/>
</clipPath>
</defs>
</svg>
