<svg width="17" height="16" viewBox="0 0 17 16" fill="none" xmlns="http://www.w3.org/2000/svg">
<g clip-path="url(#clip0_897_806)">
<path d="M12.8949 6.77997C12.8953 6.87957 12.8729 6.97798 12.8294 7.06796C12.786 7.15795 12.7226 7.23723 12.6438 7.29997L8.57175 10.52C8.45031 10.618 8.29798 10.6716 8.14078 10.6716C7.98359 10.6716 7.83126 10.618 7.70982 10.52L3.63775 7.18664C3.49915 7.07348 3.412 6.91087 3.39545 6.73459C3.3789 6.5583 3.43433 6.38278 3.54952 6.24664C3.66472 6.11049 3.83026 6.02488 4.00972 6.00863C4.18918 5.99237 4.36786 6.04681 4.50646 6.15997L8.14418 9.13997L11.7819 6.25997C11.8815 6.17845 12.0028 6.12667 12.1315 6.11075C12.2601 6.09483 12.3907 6.11544 12.5078 6.17014C12.6249 6.22485 12.7236 6.31135 12.7922 6.41943C12.8608 6.5275 12.8964 6.65262 12.8949 6.77997Z" fill="#8D8D8D"/>
</g>
<defs>
<clipPath id="clip0_897_806">
<rect width="16" height="16.2883" fill="white" transform="translate(0 16) rotate(-90)"/>
</clipPath>
</defs>
</svg>
