<svg width="26" height="26" viewBox="0 0 26 26" fill="none" xmlns="http://www.w3.org/2000/svg">
<g opacity="0.5" clip-path="url(#clip0_387_2312)">
<path d="M12.9999 22.7499C13.1425 22.7507 13.2838 22.7234 13.4158 22.6695C13.5478 22.6156 13.6679 22.5361 13.7691 22.4357L22.1866 14.0074C23.2425 12.9405 23.8347 11.5001 23.8347 9.99906C23.8347 8.49803 23.2425 7.05762 22.1866 5.99073C21.1225 4.92962 19.681 4.33374 18.1783 4.33374C16.6755 4.33374 15.2341 4.92962 14.1699 5.99073L12.9999 7.16073L11.8299 5.99073C10.7658 4.92962 9.32437 4.33374 7.8216 4.33374C6.31883 4.33374 4.87738 4.92962 3.81327 5.99073C2.75741 7.05762 2.16515 8.49803 2.16515 9.99906C2.16515 11.5001 2.75741 12.9405 3.81327 14.0074L12.2308 22.4357C12.332 22.5361 12.452 22.6156 12.584 22.6695C12.716 22.7234 12.8574 22.7507 12.9999 22.7499ZM18.1783 6.4999C18.6369 6.49782 19.0913 6.58676 19.5153 6.76156C19.9393 6.93636 20.3244 7.19355 20.6483 7.51823C21.3025 8.17594 21.6698 9.06593 21.6698 9.99365C21.6698 10.9214 21.3025 11.8113 20.6483 12.4691L12.9999 20.1282L5.3516 12.4691C4.69733 11.8113 4.33006 10.9214 4.33006 9.99365C4.33006 9.06593 4.69733 8.17594 5.3516 7.51823C6.0193 6.88741 6.90304 6.53597 7.8216 6.53597C8.74016 6.53597 9.62391 6.88741 10.2916 7.51823L12.2308 9.46823C12.3315 9.56977 12.4513 9.65036 12.5833 9.70536C12.7153 9.76036 12.8569 9.78868 12.9999 9.78868C13.1429 9.78868 13.2845 9.76036 13.4166 9.70536C13.5486 9.65036 13.6684 9.56977 13.7691 9.46823L15.7083 7.51823C16.0322 7.19355 16.4172 6.93636 16.8412 6.76156C17.2652 6.58676 17.7197 6.49782 18.1783 6.4999Z" fill="#F6F7FB"/>
</g>
<g clip-path="url(#clip1_387_2312)">
<path d="M13.0001 22.7499C12.8575 22.7507 12.7162 22.7234 12.5842 22.6695C12.4522 22.6156 12.3321 22.5361 12.2309 22.4357L3.8134 14.0074C2.75754 12.9405 2.16528 11.5001 2.16528 9.99906C2.16528 8.49803 2.75754 7.05762 3.8134 5.99073C4.87752 4.92962 6.31897 4.33374 7.82173 4.33374C9.3245 4.33374 10.7659 4.92962 11.8301 5.99073L13.0001 7.16073L14.1701 5.99073C15.2342 4.92962 16.6756 4.33374 18.1784 4.33374C19.6812 4.33374 21.1226 4.92962 22.1867 5.99073C23.2426 7.05762 23.8348 8.49803 23.8348 9.99906C23.8348 11.5001 23.2426 12.9405 22.1867 14.0074L13.7692 22.4357C13.668 22.5361 13.548 22.6156 13.416 22.6695C13.284 22.7234 13.1426 22.7507 13.0001 22.7499Z" fill="#F6F7FB"/>
</g>
<defs>
<clipPath id="clip0_387_2312">
<rect width="26" height="26" fill="white" transform="matrix(-1 0 0 1 26 0)"/>
</clipPath>
<clipPath id="clip1_387_2312">
<rect width="26" height="26" fill="white"/>
</clipPath>
</defs>
</svg>
