<svg width="31" height="31" viewBox="0 0 31 31" fill="none" xmlns="http://www.w3.org/2000/svg">
<path d="M24.2707 13.6043L16.2395 5.39601C16.1426 5.29838 16.0274 5.22089 15.9005 5.168C15.7735 5.11512 15.6374 5.08789 15.4999 5.08789C15.3624 5.08789 15.2262 5.11512 15.0993 5.168C14.9723 5.22089 14.8571 5.29838 14.7603 5.39601L6.72904 13.6148C6.53471 13.8107 6.38122 14.0432 6.27751 14.2989C6.17379 14.5547 6.12191 14.8284 6.12488 15.1043V23.8335C6.12407 24.3668 6.32776 24.88 6.69402 25.2676C7.06027 25.6551 7.56119 25.8875 8.09363 25.9168H22.9061C23.4386 25.8875 23.9395 25.6551 24.3057 25.2676C24.672 24.88 24.8757 24.3668 24.8749 23.8335V15.1043C24.8757 14.5449 24.6591 14.007 24.2707 13.6043ZM13.4165 23.8335V17.5835H17.5832V23.8335H13.4165ZM22.7915 23.8335H19.6665V16.5418C19.6665 16.2656 19.5568 16.0006 19.3614 15.8053C19.1661 15.6099 18.9011 15.5002 18.6249 15.5002H12.3749C12.0986 15.5002 11.8337 15.6099 11.6383 15.8053C11.443 16.0006 11.3332 16.2656 11.3332 16.5418V23.8335H8.20821V15.0627L15.4999 7.61476L22.7915 15.1043V23.8335Z" fill="black"/>
</svg>
