<svg width="14" height="14" viewBox="0 0 14 14" fill="none" xmlns="http://www.w3.org/2000/svg">
<g opacity="0.5" clip-path="url(#clip0_387_1629)">
<path d="M7.00012 12.25C7.07689 12.2505 7.15299 12.2357 7.22406 12.2067C7.29513 12.1777 7.35978 12.1349 7.41428 12.0808L11.9468 7.54251C12.5153 6.96803 12.8342 6.19242 12.8342 5.38418C12.8342 4.57593 12.5153 3.80032 11.9468 3.22584C11.3738 2.65447 10.5976 2.33362 9.78845 2.33362C8.97927 2.33362 8.2031 2.65447 7.63012 3.22584L7.00012 3.85584L6.37012 3.22584C5.79713 2.65447 5.02096 2.33362 4.21178 2.33362C3.4026 2.33362 2.62644 2.65447 2.05345 3.22584C1.48491 3.80032 1.166 4.57593 1.166 5.38418C1.166 6.19242 1.48491 6.96803 2.05345 7.54251L6.58595 12.0808C6.64046 12.1349 6.7051 12.1777 6.77617 12.2067C6.84724 12.2357 6.92334 12.2505 7.00012 12.25ZM9.78845 3.50001C10.0354 3.49889 10.2801 3.54678 10.5084 3.64091C10.7367 3.73503 10.944 3.87352 11.1184 4.04834C11.4707 4.4025 11.6685 4.88172 11.6685 5.38126C11.6685 5.8808 11.4707 6.36002 11.1184 6.71418L7.00012 10.8383L2.88178 6.71418C2.52948 6.36002 2.33172 5.8808 2.33172 5.38126C2.33172 4.88172 2.52948 4.4025 2.88178 4.04834C3.24131 3.70867 3.71717 3.51943 4.21178 3.51943C4.70639 3.51943 5.18225 3.70867 5.54178 4.04834L6.58595 5.09834C6.64018 5.15302 6.70469 5.19641 6.77578 5.22603C6.84686 5.25564 6.92311 5.27089 7.00012 5.27089C7.07712 5.27089 7.15337 5.25564 7.22445 5.22603C7.29554 5.19641 7.36005 5.15302 7.41428 5.09834L8.45845 4.04834C8.63285 3.87352 8.8402 3.73503 9.0685 3.64091C9.2968 3.54678 9.54151 3.49889 9.78845 3.50001V3.50001Z" fill="#595959"/>
</g>
<defs>
<clipPath id="clip0_387_1629">
<rect width="14" height="14" fill="white" transform="matrix(-1 0 0 1 14 0)"/>
</clipPath>
</defs>
</svg>
