<svg width="21" height="20" viewBox="0 0 21 20" fill="none" xmlns="http://www.w3.org/2000/svg">
<g opacity="0.3" clip-path="url(#clip0_32_32)">
<path d="M18.1213 16.075L15.1463 13.25C16.1061 12.0854 16.6269 10.6472 16.625 9.16667C16.625 7.84813 16.2145 6.5592 15.4453 5.46287C14.6761 4.36654 13.5829 3.51206 12.3038 3.00747C11.0247 2.50289 9.61724 2.37087 8.25937 2.6281C6.9015 2.88534 5.65422 3.52027 4.67526 4.45262C3.69629 5.38497 3.0296 6.57286 2.75951 7.86607C2.48941 9.15927 2.62803 10.4997 3.15785 11.7179C3.68766 12.9361 4.58487 13.9773 5.73601 14.7098C6.88716 15.4423 8.24053 15.8333 9.625 15.8333C11.1796 15.8352 12.6897 15.3392 13.9125 14.425L16.8788 17.2583C16.9601 17.3364 17.0569 17.3984 17.1635 17.4407C17.2701 17.4831 17.3845 17.5048 17.5 17.5048C17.6155 17.5048 17.7299 17.4831 17.8365 17.4407C17.9431 17.3984 18.0399 17.3364 18.1213 17.2583C18.2033 17.1809 18.2684 17.0887 18.3128 16.9871C18.3572 16.8856 18.3801 16.7767 18.3801 16.6667C18.3801 16.5567 18.3572 16.4477 18.3128 16.3462C18.2684 16.2446 18.2033 16.1525 18.1213 16.075ZM4.375 9.16667C4.375 8.17776 4.68291 7.21106 5.25979 6.38882C5.83666 5.56657 6.6566 4.92571 7.61591 4.54727C8.57523 4.16883 9.63083 4.06982 10.6492 4.26274C11.6676 4.45567 12.6031 4.93187 13.3373 5.63114C14.0715 6.3304 14.5716 7.22131 14.7741 8.19122C14.9767 9.16112 14.8727 10.1665 14.4754 11.0801C14.078 11.9937 13.4051 12.7746 12.5417 13.324C11.6784 13.8734 10.6634 14.1667 9.625 14.1667C8.23262 14.1667 6.89726 13.6399 5.91269 12.7022C4.92813 11.7645 4.375 10.4928 4.375 9.16667Z" fill="black"/>
</g>
<defs>
<clipPath id="clip0_32_32">
<rect width="21" height="20" fill="white"/>
</clipPath>
</defs>
</svg>
