<svg width="18" height="18" viewBox="0 0 18 18" fill="none" xmlns="http://www.w3.org/2000/svg">
<g clip-path="url(#clip0_897_696)">
<path d="M15.75 2.99994C15.7422 2.93104 15.7271 2.86316 15.705 2.79744V2.72994C15.669 2.64647 15.6182 2.57023 15.555 2.50494C15.4913 2.44514 15.4177 2.39691 15.3375 2.36244H15.27C15.2008 2.30965 15.1218 2.27138 15.0375 2.24994H15C14.9254 2.23863 14.8495 2.23863 14.775 2.24994L1.27497 6.74994C1.12492 6.79926 0.994266 6.89469 0.901644 7.02263C0.809021 7.15057 0.759155 7.30449 0.759155 7.46244C0.759155 7.62039 0.809021 7.77431 0.901644 7.90225C0.994266 8.03019 1.12492 8.12562 1.27497 8.17494L7.67247 10.3049L9.80247 16.7024C9.85179 16.8525 9.94722 16.9831 10.0752 17.0758C10.2031 17.1684 10.357 17.2183 10.515 17.2183C10.6729 17.2183 10.8268 17.1684 10.9548 17.0758C11.0827 16.9831 11.1781 16.8525 11.2275 16.7024L15.7275 3.20244C15.7441 3.13628 15.7517 3.06815 15.75 2.99994ZM12.225 4.71744L8.04747 8.89494L3.86997 7.49994L12.225 4.71744ZM10.5 14.1299L9.10497 9.95244L13.2825 5.77494L10.5 14.1299Z" fill="#C4C4C4"/>
</g>
<defs>
<clipPath id="clip0_897_696">
<rect width="18" height="18" fill="white"/>
</clipPath>
</defs>
</svg>
