<svg width="15" height="15" viewBox="0 0 15 15" fill="none" xmlns="http://www.w3.org/2000/svg">
<g clip-path="url(#clip0_595_1096)">
<path d="M7.5 8.75C8.19036 8.75 8.75 8.19036 8.75 7.5C8.75 6.80964 8.19036 6.25 7.5 6.25C6.80964 6.25 6.25 6.80964 6.25 7.5C6.25 8.19036 6.80964 8.75 7.5 8.75Z" fill="#606060"/>
<path d="M7.5 4.375C8.19036 4.375 8.75 3.81536 8.75 3.125C8.75 2.43464 8.19036 1.875 7.5 1.875C6.80964 1.875 6.25 2.43464 6.25 3.125C6.25 3.81536 6.80964 4.375 7.5 4.375Z" fill="#606060"/>
<path d="M7.5 13.125C8.19036 13.125 8.75 12.5654 8.75 11.875C8.75 11.1846 8.19036 10.625 7.5 10.625C6.80964 10.625 6.25 11.1846 6.25 11.875C6.25 12.5654 6.80964 13.125 7.5 13.125Z" fill="#606060"/>
</g>
<defs>
<clipPath id="clip0_595_1096">
<rect width="15" height="15" fill="white"/>
</clipPath>
</defs>
</svg>
