<svg width="25" height="25" viewBox="0 0 25 25" fill="none" xmlns="http://www.w3.org/2000/svg">
<path d="M21.2708 10.6041L13.2396 2.3958C13.1427 2.29817 13.0275 2.22067 12.9006 2.16779C12.7737 2.1149 12.6375 2.08768 12.5 2.08768C12.3625 2.08768 12.2263 2.1149 12.0994 2.16779C11.9725 2.22067 11.8573 2.29817 11.7604 2.3958L3.72916 10.6145C3.53483 10.8105 3.38135 11.043 3.27763 11.2987C3.17392 11.5544 3.12203 11.8282 3.125 12.1041V20.8333C3.12419 21.3665 3.32789 21.8798 3.69414 22.2674C4.06039 22.6549 4.56131 22.8873 5.09375 22.9166H19.9062C20.4387 22.8873 20.9396 22.6549 21.3059 22.2674C21.6721 21.8798 21.8758 21.3665 21.875 20.8333V12.1041C21.8758 11.5447 21.6592 11.0068 21.2708 10.6041ZM10.4167 20.8333V14.5833H14.5833V20.8333H10.4167ZM19.7917 20.8333H16.6667V13.5416C16.6667 13.2654 16.5569 13.0004 16.3616 12.8051C16.1662 12.6097 15.9013 12.5 15.625 12.5H9.375C9.09873 12.5 8.83378 12.6097 8.63843 12.8051C8.44308 13.0004 8.33333 13.2654 8.33333 13.5416V20.8333H5.20833V12.0625L12.5 4.61455L19.7917 12.1041V20.8333Z" fill="black"/>
</svg>
