<svg width="25" height="25" viewBox="0 0 25 25" fill="none" xmlns="http://www.w3.org/2000/svg">
<g clip-path="url(#clip0_963_460)">
<path d="M17.3126 6.46862C17.2047 6.38325 17.0811 6.32007 16.9487 6.28275C16.8163 6.24542 16.6779 6.23468 16.5413 6.25114C16.4048 6.26761 16.2728 6.31095 16.1531 6.37867C16.0334 6.44639 15.9283 6.53715 15.8438 6.6457L8.55216 16.0207L4.97924 11.6665C4.89543 11.555 4.79007 11.4614 4.6694 11.3913C4.54873 11.3213 4.41521 11.2762 4.27678 11.2587C4.13835 11.2413 3.99781 11.2518 3.86353 11.2897C3.72924 11.3276 3.60393 11.392 3.49504 11.4793C3.38616 11.5665 3.29591 11.6748 3.22965 11.7976C3.1634 11.9204 3.12249 12.0552 3.10936 12.1942C3.09623 12.3331 3.11114 12.4732 3.1532 12.6062C3.19527 12.7393 3.26363 12.8625 3.35424 12.9686L7.69799 18.3645C7.79603 18.4853 7.9199 18.5827 8.06051 18.6494C8.20111 18.7161 8.35487 18.7504 8.51049 18.7499C8.67568 18.7572 8.84024 18.7252 8.99058 18.6564C9.14093 18.5875 9.27272 18.4839 9.37507 18.354L17.5313 7.93737C17.6145 7.82698 17.6748 7.70114 17.7089 7.5672C17.7429 7.43325 17.75 7.29387 17.7296 7.15717C17.7092 7.02048 17.6619 6.8892 17.5903 6.77098C17.5187 6.65277 17.4243 6.54999 17.3126 6.46862Z" fill="#3D6AF2"/>
<path d="M22.5208 6.46862C22.413 6.38325 22.2893 6.32007 22.1569 6.28275C22.0246 6.24542 21.8861 6.23468 21.7496 6.25114C21.613 6.26761 21.4811 6.31095 21.3614 6.37867C21.2417 6.44639 21.1365 6.53715 21.0521 6.6457L13.7604 16.0207L13.125 15.2395L11.8125 16.927L12.9583 18.354C13.0564 18.4749 13.1802 18.5722 13.3208 18.6389C13.4615 18.7056 13.6152 18.74 13.7708 18.7395C13.9273 18.7387 14.0816 18.7028 14.2222 18.6342C14.3629 18.5657 14.4863 18.4664 14.5833 18.3436L22.7396 7.92695C22.8211 7.81688 22.8801 7.69182 22.9133 7.55891C22.9464 7.42601 22.953 7.28787 22.9327 7.15241C22.9124 7.01696 22.8655 6.88684 22.7949 6.7695C22.7242 6.65217 22.6311 6.54992 22.5208 6.46862Z" fill="#3D6AF2"/>
<path d="M9.07281 13.6044L10.4166 11.9169L10.2082 11.6669C10.126 11.5529 10.0215 11.4568 9.90119 11.3843C9.78083 11.3118 9.64705 11.2644 9.50788 11.2449C9.36872 11.2254 9.22706 11.2343 9.09143 11.271C8.95579 11.3078 8.82899 11.3715 8.71864 11.4585C8.61164 11.5445 8.52267 11.6508 8.45687 11.7712C8.39106 11.8917 8.34971 12.0239 8.33519 12.1604C8.32067 12.2969 8.33327 12.4349 8.37226 12.5665C8.41125 12.6981 8.47587 12.8207 8.56239 12.9273L9.07281 13.6044Z" fill="#3D6AF2"/>
</g>
<defs>
<clipPath id="clip0_963_460">
<rect width="25" height="25" fill="white"/>
</clipPath>
</defs>
</svg>
