<svg width="25" height="25" viewBox="0 0 25 25" fill="none" xmlns="http://www.w3.org/2000/svg">
<path d="M21.2707 10.6041L13.2395 2.39579C13.1426 2.29816 13.0274 2.22066 12.9005 2.16778C12.7735 2.1149 12.6374 2.08767 12.4999 2.08767C12.3624 2.08767 12.2262 2.1149 12.0993 2.16778C11.9723 2.22066 11.8571 2.29816 11.7603 2.39579L3.72904 10.6145C3.53471 10.8104 3.38122 11.043 3.27751 11.2987C3.17379 11.5544 3.12191 11.8282 3.12488 12.1041V20.8333C3.12407 21.3665 3.32776 21.8798 3.69402 22.2674C4.06027 22.6549 4.56119 22.8873 5.09363 22.9166H19.9061C20.4386 22.8873 20.9395 22.6549 21.3057 22.2674C21.672 21.8798 21.8757 21.3665 21.8749 20.8333V12.1041C21.8757 11.5447 21.6591 11.0068 21.2707 10.6041V10.6041ZM10.4165 20.8333V14.5833H14.5832V20.8333H10.4165ZM19.7915 20.8333H16.6665V13.5416C16.6665 13.2654 16.5568 13.0004 16.3614 12.8051C16.1661 12.6097 15.9011 12.5 15.6249 12.5H9.37488C9.09861 12.5 8.83366 12.6097 8.63831 12.8051C8.44296 13.0004 8.33321 13.2654 8.33321 13.5416V20.8333H5.20821V12.0625L12.4999 4.61454L19.7915 12.1041V20.8333Z" fill="#3D6AF2"/>
</svg>
