<svg width="80" height="65" viewBox="0 0 80 65" fill="none" xmlns="http://www.w3.org/2000/svg">
<g filter="url(#filter0_d_749_540)">
<circle cx="40" cy="34" r="24" fill="#3D6AF2"/>
</g>
<g clip-path="url(#clip0_749_540)">
<path d="M48.9583 33.2917H41.7083V26.0417C41.7083 25.7212 41.5809 25.4138 41.3543 25.1872C41.1277 24.9606 40.8204 24.8333 40.4999 24.8333C40.1794 24.8333 39.8721 24.9606 39.6455 25.1872C39.4189 25.4138 39.2916 25.7212 39.2916 26.0417V33.2917H32.0416C31.7211 33.2917 31.4138 33.419 31.1872 33.6456C30.9606 33.8722 30.8333 34.1795 30.8333 34.5C30.8333 34.8205 30.9606 35.1278 31.1872 35.3544C31.4138 35.581 31.7211 35.7083 32.0416 35.7083H39.2916V42.9583C39.2916 43.2788 39.4189 43.5861 39.6455 43.8127C39.8721 44.0394 40.1794 44.1667 40.4999 44.1667C40.8204 44.1667 41.1277 44.0394 41.3543 43.8127C41.5809 43.5861 41.7083 43.2788 41.7083 42.9583V35.7083H48.9583C49.2787 35.7083 49.5861 35.581 49.8127 35.3544C50.0393 35.1278 50.1666 34.8205 50.1666 34.5C50.1666 34.1795 50.0393 33.8722 49.8127 33.6456C49.5861 33.419 49.2787 33.2917 48.9583 33.2917Z" fill="#F6F7FB"/>
</g>
<defs>
<filter id="filter0_d_749_540" x="0" y="0" width="80" height="80" filterUnits="userSpaceOnUse" color-interpolation-filters="sRGB">
<feFlood flood-opacity="0" result="BackgroundImageFix"/>
<feColorMatrix in="SourceAlpha" type="matrix" values="0 0 0 0 0 0 0 0 0 0 0 0 0 0 0 0 0 0 127 0" result="hardAlpha"/>
<feOffset dy="6"/>
<feGaussianBlur stdDeviation="8"/>
<feComposite in2="hardAlpha" operator="out"/>
<feColorMatrix type="matrix" values="0 0 0 0 0 0 0 0 0 0 0 0 0 0 0 0 0 0 0.1 0"/>
<feBlend mode="normal" in2="BackgroundImageFix" result="effect1_dropShadow_749_540"/>
<feBlend mode="normal" in="SourceGraphic" in2="effect1_dropShadow_749_540" result="shape"/>
</filter>
<clipPath id="clip0_749_540">
<rect width="29" height="29" fill="white" transform="translate(26 20)"/>
</clipPath>
</defs>
</svg>
